<svg xmlns="http://www.w3.org/2000/svg" width="20" height="20" viewBox="0 0 20 20" fill="none">
  <path d="M17.5 6.25001V5.00001C17.5 4.55798 17.3244 4.13406 17.0118 3.8215C16.6993 3.50894 16.2754 3.33334 15.8333 3.33334H4.16667C3.72464 3.33334 3.30072 3.50894 2.98816 3.8215C2.67559 4.13406 2.5 4.55798 2.5 5.00001V16.6667C2.5 17.1087 2.67559 17.5326 2.98816 17.8452C3.30072 18.1577 3.72464 18.3333 4.16667 18.3333H7.08333" stroke="#292C6D" stroke-width="1.66667" stroke-linecap="round" stroke-linejoin="round"/>
  <path d="M13.3335 1.66666V4.99999" stroke="#292C6D" stroke-width="1.66667" stroke-linecap="round" stroke-linejoin="round"/>
  <path d="M6.6665 1.66666V4.99999" stroke="#292C6D" stroke-width="1.66667" stroke-linecap="round" stroke-linejoin="round"/>
  <path d="M2.5 8.33334H6.66667" stroke="#292C6D" stroke-width="1.66667" stroke-linecap="round" stroke-linejoin="round"/>
  <path d="M14.5835 14.5833L13.3335 13.5417V11.6667" stroke="#292C6D" stroke-width="1.66667" stroke-linecap="round" stroke-linejoin="round"/>
  <path d="M18.3335 13.3333C18.3335 14.6594 17.8067 15.9312 16.869 16.8689C15.9313 17.8066 14.6596 18.3333 13.3335 18.3333C12.0074 18.3333 10.7356 17.8066 9.79796 16.8689C8.86028 15.9312 8.3335 14.6594 8.3335 13.3333C8.3335 12.0073 8.86028 10.7355 9.79796 9.79781C10.7356 8.86013 12.0074 8.33334 13.3335 8.33334C14.6596 8.33334 15.9313 8.86013 16.869 9.79781C17.8067 10.7355 18.3335 12.0073 18.3335 13.3333Z" stroke="#292C6D" stroke-width="1.66667" stroke-linecap="round" stroke-linejoin="round"/>
</svg>