<svg xmlns="http://www.w3.org/2000/svg" width="41" height="40" viewBox="0 0 41 40" fill="none">
  <path d="M13.8333 31.547C15.8602 32.7173 18.1594 33.3334 20.4999 33.3334C22.8404 33.3334 25.1397 32.7173 27.1666 31.547C29.1935 30.3768 30.8767 28.6936 32.0469 26.6667C33.2172 24.6398 33.8333 22.3405 33.8333 20C33.8333 17.6595 33.2172 15.3603 32.0469 13.3334C30.8767 11.3064 29.1935 9.62326 27.1666 8.45302C25.1397 7.28277 22.8404 6.66669 20.4999 6.66669C18.1594 6.66669 15.8602 7.28277 13.8333 8.45301" stroke="white" stroke-width="1.25"/>
  <path d="M3.83325 20L3.34521 19.6096L3.03286 20L3.34521 20.3905L3.83325 20ZM18.8333 20.625C19.1784 20.625 19.4583 20.3452 19.4583 20C19.4583 19.6548 19.1784 19.375 18.8333 19.375V20.625ZM10.0119 11.2763L3.34521 19.6096L4.32129 20.3905L10.988 12.0571L10.0119 11.2763ZM3.34521 20.3905L10.0119 28.7238L10.988 27.9429L4.32129 19.6096L3.34521 20.3905ZM3.83325 20.625H18.8333V19.375H3.83325V20.625Z" fill="white"/>
</svg>