<svg xmlns="http://www.w3.org/2000/svg" width="45" height="43" viewBox="0 0 45 43" fill="none">
  <path opacity="0.25" d="M44 21.1521C44 32.2205 34.4335 41.2976 22.5 41.2976C10.5665 41.2976 1 32.2205 1 21.1521C1 10.0836 10.5665 1.00659 22.5 1.00659C34.4335 1.00659 44 10.0836 44 21.1521Z" stroke="white" stroke-width="2"/>
  <path d="M20.699 27.6301L20.6786 21.7122H18V19.176H20.6786V17.4852C20.6786 15.2032 22.171 14.1035 24.3209 14.1035C25.3507 14.1035 26.2358 14.1761 26.4937 14.2086V16.5933L25.0026 16.5939C23.8334 16.5939 23.607 17.12 23.607 17.892V19.176H26.9286L26.0357 21.7122H23.607V27.6301H20.699Z" fill="white"/>
</svg>