<svg xmlns="http://www.w3.org/2000/svg" width="45" height="43" viewBox="0 0 45 43" fill="none">
  <path opacity="0.25" d="M44 21.1521C44 32.2205 34.4335 41.2976 22.5 41.2976C10.5665 41.2976 1 32.2205 1 21.1521C1 10.0836 10.5665 1.00659 22.5 1.00659C34.4335 1.00659 44 10.0836 44 21.1521Z" stroke="white" stroke-width="2"/>
  <path d="M25.8679 18.7483C26.2987 18.7483 26.6479 18.4201 26.6479 18.0153C26.6479 17.6104 26.2987 17.2822 25.8679 17.2822C25.4371 17.2822 25.0879 17.6104 25.0879 18.0153C25.0879 18.4201 25.4371 18.7483 25.8679 18.7483Z" fill="white"/>
  <path fill-rule="evenodd" clip-rule="evenodd" d="M19.25 21.1522C19.25 22.8367 20.7076 24.2066 22.5 24.2066C24.2924 24.2066 25.75 22.8367 25.75 21.1522C25.75 19.4678 24.2924 18.0979 22.5 18.0979C20.7076 18.0979 19.25 19.4678 19.25 21.1522ZM20.875 21.1522C20.875 20.31 21.6038 19.6251 22.5 19.6251C23.3962 19.6251 24.125 20.31 24.125 21.1522C24.125 21.9945 23.3962 22.6794 22.5 22.6794C21.6038 22.6794 20.875 21.9945 20.875 21.1522Z" fill="white"/>
  <path fill-rule="evenodd" clip-rule="evenodd" d="M19.25 27.2608H25.75C27.4205 27.2608 29 25.7764 29 24.2065V18.0978C29 16.5279 27.4205 15.0435 25.75 15.0435H19.25C17.5795 15.0435 16 16.5279 16 18.0978V24.2065C16 25.7764 17.5795 27.2608 19.25 27.2608ZM17.625 18.0978C17.625 17.3839 18.4903 16.5706 19.25 16.5706H25.75C26.5097 16.5706 27.375 17.3839 27.375 18.0978V24.2065C27.375 24.9205 26.5097 25.7337 25.75 25.7337H19.25C18.4757 25.7337 17.625 24.9342 17.625 24.2065V18.0978Z" fill="white"/>
</svg>