<svg xmlns="http://www.w3.org/2000/svg" width="45" height="43" viewBox="0 0 45 43" fill="none">
  <path opacity="0.25" d="M43.875 21.1521C43.875 32.1443 34.3719 41.1726 22.5 41.1726C10.6281 41.1726 1.125 32.1443 1.125 21.1521C1.125 10.1598 10.6281 1.13159 22.5 1.13159C34.3719 1.13159 43.875 10.1598 43.875 21.1521Z" stroke="white" stroke-width="2.25"/>
  <path d="M17.6875 18.2153C18.6195 18.2153 19.375 17.5052 19.375 16.6294C19.375 15.7535 18.6195 15.0435 17.6875 15.0435C16.7555 15.0435 16 15.7535 16 16.6294C16 17.5052 16.7555 18.2153 17.6875 18.2153Z" fill="white"/>
  <path d="M19.0938 19.2725H16.2812C16.126 19.2725 16 19.3909 16 19.5368V27.4663C16 27.6122 16.126 27.7307 16.2812 27.7307H19.0938C19.249 27.7307 19.375 27.6122 19.375 27.4663V19.5368C19.375 19.3909 19.249 19.2725 19.0938 19.2725Z" fill="white"/>
  <path d="M27.4733 18.9083C26.2712 18.5214 24.7677 18.8613 23.866 19.4708C23.8351 19.3571 23.7248 19.2726 23.5938 19.2726H20.7812C20.626 19.2726 20.5 19.391 20.5 19.5369V27.4664C20.5 27.6123 20.626 27.7308 20.7812 27.7308H23.5938C23.749 27.7308 23.875 27.6123 23.875 27.4664V21.7677C24.3295 21.3998 24.9151 21.2824 25.3943 21.4738C25.8589 21.6583 26.125 22.1087 26.125 22.7087V27.4664C26.125 27.6123 26.251 27.7308 26.4062 27.7308H29.2188C29.374 27.7308 29.5 27.6123 29.5 27.4664V22.1764C29.4679 20.0042 28.3806 19.2001 27.4733 18.9083Z" fill="white"/>
</svg>