<svg xmlns="http://www.w3.org/2000/svg" width="40" height="40" viewBox="0 0 40 40" fill="none">
  <path d="M20 21.25V23.3333" stroke="white" stroke-width="1.25" stroke-linecap="round"/>
  <path d="M20.6396 5.16934L32.7131 8.36527C33.0786 8.46203 33.3332 8.79275 33.3332 9.17086V23.4896C33.3332 25.1674 32.4917 26.7333 31.0925 27.6593L20.4597 34.6957C20.1809 34.8802 19.8188 34.8802 19.5399 34.6957L8.90717 27.6593C7.508 26.7333 6.6665 25.1674 6.6665 23.4896V9.17086C6.6665 8.79275 6.92107 8.46203 7.28659 8.36527L19.3601 5.16934C19.7794 5.05836 20.2203 5.05836 20.6396 5.16934Z" stroke="white" stroke-width="1.25" stroke-linecap="round"/>
  <path d="M13.3333 17.9167C13.3333 17.131 13.3333 16.7382 13.5773 16.4941C13.8214 16.25 14.2142 16.25 14.9999 16.25H24.9999C25.7856 16.25 26.1784 16.25 26.4225 16.4941C26.6666 16.7382 26.6666 17.131 26.6666 17.9167V22.9479C26.6666 23.2655 26.6666 23.4242 26.6425 23.5643C26.5479 24.1151 26.1835 24.5817 25.6722 24.8071C25.5421 24.8645 25.3881 24.903 25.08 24.98V24.98C24.049 25.2377 23.5335 25.3666 23.0179 25.4615C21.0227 25.8289 18.9772 25.8289 16.982 25.4615C16.4663 25.3666 15.9508 25.2377 14.9198 24.98V24.98C14.6118 24.903 14.4578 24.8645 14.3277 24.8071C13.8163 24.5817 13.452 24.1151 13.3573 23.5643C13.3333 23.4242 13.3333 23.2655 13.3333 22.9479V17.9167Z" stroke="white" stroke-width="1.25"/>
  <path d="M23.75 16.25V15.4167C23.75 13.3456 22.0711 11.6667 20 11.6667V11.6667C17.9289 11.6667 16.25 13.3456 16.25 15.4167V16.25" stroke="white" stroke-width="1.25"/>
  <circle cx="19.9999" cy="20.4167" r="1.66667" fill="white"/>
</svg>