<svg xmlns="http://www.w3.org/2000/svg" width="40" height="40" viewBox="0 0 40 40" fill="none">
  <path d="M30.8334 14.375V12.5C30.8334 11.837 30.57 11.2011 30.1011 10.7322C29.6323 10.2634 28.9964 10 28.3334 10H10.8334C10.1703 10 9.53445 10.2634 9.06561 10.7322C8.59677 11.2011 8.33337 11.837 8.33337 12.5V30C8.33337 30.663 8.59677 31.2989 9.06561 31.7678C9.53445 32.2366 10.1703 32.5 10.8334 32.5H15.2084" stroke="white" stroke-width="1.25" stroke-linecap="round" stroke-linejoin="round"/>
  <path d="M24.5834 7.5V12.5" stroke="white" stroke-width="1.25" stroke-linecap="round" stroke-linejoin="round"/>
  <path d="M14.5834 7.5V12.5" stroke="white" stroke-width="1.25" stroke-linecap="round" stroke-linejoin="round"/>
  <path d="M8.33337 17.5H14.5834" stroke="white" stroke-width="1.25" stroke-linecap="round" stroke-linejoin="round"/>
  <path d="M26.4584 26.875L24.5834 25.3125V22.5" stroke="white" stroke-width="1.25" stroke-linecap="round" stroke-linejoin="round"/>
  <path d="M32.0834 25C32.0834 26.9891 31.2932 28.8968 29.8867 30.3033C28.4802 31.7098 26.5725 32.5 24.5834 32.5C22.5943 32.5 20.6866 31.7098 19.2801 30.3033C17.8736 28.8968 17.0834 26.9891 17.0834 25C17.0834 23.0109 17.8736 21.1032 19.2801 19.6967C20.6866 18.2902 22.5943 17.5 24.5834 17.5C26.5725 17.5 28.4802 18.2902 29.8867 19.6967C31.2932 21.1032 32.0834 23.0109 32.0834 25Z" stroke="white" stroke-width="1.25" stroke-linecap="round" stroke-linejoin="round"/>
</svg>