<svg xmlns="http://www.w3.org/2000/svg" width="45" height="43" viewBox="0 0 45 43" fill="none">
  <path opacity="0.25" d="M44 21.1521C44 32.2205 34.4335 41.2976 22.5 41.2976C10.5665 41.2976 1 32.2205 1 21.1521C1 10.0836 10.5665 1.00659 22.5 1.00659C34.4335 1.00659 44 10.0836 44 21.1521Z" stroke="white" stroke-width="2"/>
  <path fill-rule="evenodd" clip-rule="evenodd" d="M29.2659 16.3056C29.951 16.476 30.4906 16.9755 30.6745 17.6085C31.0159 18.7639 30.9999 21.1727 30.9999 21.1727C30.9999 21.1727 30.9975 23.5683 30.6665 24.7229C30.4803 25.3552 29.9382 25.8539 29.2539 26.0236C28.002 26.3261 22.9935 26.3209 22.9935 26.3209C22.9935 26.3209 17.9987 26.3158 16.734 25.9985C16.0481 25.8281 15.5084 25.3286 15.3246 24.6963C14.9968 23.5528 15 21.1447 15 21.1447C15 21.1447 15.0032 18.7484 15.3334 17.593C15.5188 16.9607 16.0736 16.4502 16.7452 16.2812C17.9979 15.978 23.0055 15.9832 23.0055 15.9832C23.0055 15.9832 28.014 15.9883 29.2659 16.3056ZM21.4075 18.938L21.4035 23.3647L25.5701 21.155L21.4075 18.938Z" fill="white"/>
</svg>